<svg viewBox="0 0 24 24" fill="none" xmlns="http://www.w3.org/2000/svg">
  <!-- Elegant Feather Design -->
  <path d="M20 4C18 3 15 3 13 4.5C11 6 9 9 8 12C7 15 7 18 8 20L4 22C4.5 21 5 19.5 5 18C5 16 4 14 3 13C2 12 1.5 11 2 10C2.5 9 4 8.5 6 9C8 9.5 10 11 11 13C12 15 12 17 11 19" stroke="#FF2B06" stroke-width="0.5" stroke-linecap="round" opacity="0.3"/>
  
  <!-- Main Shaft -->
  <path d="M4 22C6 20 10 15 13 10C16 5 19 3 21 2" stroke="#FF2B06" stroke-width="1.2" stroke-linecap="round" stroke-linejoin="round"/>
  
  <!-- Vanes / Barbs (Right side) -->
  <path d="M11 13.5C13 13 16 11.5 18 9" stroke="#FF2B06" stroke-width="0.8" stroke-linecap="round" opacity="0.8"/>
  <path d="M13 10C15 9.5 18 8 19.5 5.5" stroke="#FF2B06" stroke-width="0.8" stroke-linecap="round" opacity="0.8"/>
  <path d="M15 7C17 6.5 19 5 20 3" stroke="#FF2B06" stroke-width="0.8" stroke-linecap="round" opacity="0.8"/>
  
  <!-- Vanes / Barbs (Left side) -->
  <path d="M9 16C7.5 15.5 5.5 14 4.5 11.5" stroke="#FF2B06" stroke-width="0.8" stroke-linecap="round" opacity="0.8"/>
  <path d="M11 13.5C9.5 13 7.5 11.5 6.5 9" stroke="#FF2B06" stroke-width="0.8" stroke-linecap="round" opacity="0.8"/>
  <path d="M13 10C11.5 9.5 9.5 8 8.5 5.5" stroke="#FF2B06" stroke-width="0.8" stroke-linecap="round" opacity="0.8"/>
  
  <!-- Subtle fill for volume -->
  <path d="M4 22C6 20 10 15 13 10C16 5 19 3 21 2C19 3 15 4 13 7C11 10 9 13 8 16C7 19 4 22 4 22Z" fill="#FF2B06" fill-opacity="0.05"/>
</svg>